PathFileType	4	(x/y/z)	S01_P20_T04
DataRate	CameraRate	NumFrames	NumMarkers	Units	OrigDataRate	OrigDataStartFrame	OrigNumFrames
240	240	4	51	mm	240	204	406
Frame#	Time	Sternum			R.Acromium			L.Acromium			Top.Head			R.ASIS			L.ASIS			R.PSIS			L.PSIS			R.Great.Tro			L.Great.Tro			R.Iliac.Crest			L.Iliac.Crest			V.Sacral			R.Thigh.Upper.Post			R.Thigh.Lower.Ant			R.Thigh.Lower.Post			R.Thigh.Upper.Ant			R.Knee.Lat			R.Knee.Med			R.Shank.Upper.Post			R.Shank.Lower.Ant			R.Shank.Lower.Post			R.Shank.Upper.Ant			R.Ankle.Lat			R.Ankle.Med			R.Heel.Upper			R.Heel.Med			R.Heel.Lat			R.Toe.Lat			R.Toe.Med			R.Toe.Tip			L.Thigh.Upper.Post			L.Thigh.Lower.Ant			L.Thigh.Lower.Post			L.Thigh.Upper.Ant			L.Knee.Lat			L.Knee.Med			L.Shank.Upper.Post			L.Shank.Lower.Ant			L.Shank.Lower.Post			L.Shank.Upper.Ant			L.Ankle.Lat			L.Ankle.Med			L.Heel.Upper			L.Heel.Med			L.Heel.Lat			L.Toe.Lat			L.Toe.Med			L.Toe.Tip			Cervical.Spine			Back			
		X1	Y1	Z1	X2	Y2	Z2	X3	Y3	Z3	X4	Y4	Z4	X5	Y5	Z5	X6	Y6	Z6	X7	Y7	Z7	X8	Y8	Z8	X9	Y9	Z9	X10	Y10	Z10	X11	Y11	Z11	X12	Y12	Z12	X13	Y13	Z13	X14	Y14	Z14	X15	Y15	Z15	X16	Y16	Z16	X17	Y17	Z17	X18	Y18	Z18	X19	Y19	Z19	X20	Y20	Z20	X21	Y21	Z21	X22	Y22	Z22	X23	Y23	Z23	X24	Y24	Z24	X25	Y25	Z25	X26	Y26	Z26	X27	Y27	Z27	X28	Y28	Z28	X29	Y29	Z29	X30	Y30	Z30	X31	Y31	Z31	X32	Y32	Z32	X33	Y33	Z33	X34	Y34	Z34	X35	Y35	Z35	X36	Y36	Z36	X37	Y37	Z37	X38	Y38	Z38	X39	Y39	Z39	X40	Y40	Z40	X41	Y41	Z41	X42	Y42	Z42	X43	Y43	Z43	X44	Y44	Z44	X45	Y45	Z45	X46	Y46	Z46	X47	Y47	Z47	X48	Y48	Z48	X49	Y49	Z49	X50	Y50	Z50	X51	Y51	Z51	

204	0.84583	-290.81	1298.4	295.8	-396.02	1543.8	482.74	-436.06	1564.4	155.84	-432.05	1869.7	326.64	-333.07	1040	447.74	-339.4	1050.3	183.72	-571.64	1083.7	360.9	-575.28	1081.5	257.8	-411.52	982.82	526.1	-439.15	1000.7	102.22	-417.21	1139.4	514.94	-453.07	1132.6	115.33	-585.86	1045.6	307.8	-419.06	675.27	493.78	-350.41	604.97	460.1	-417.96	589.17	469.24	-348.37	693.34	484.25	-397.41	522.56	457.42	-397.92	529.72	316.2	-476.44	371.35	476.28	-430.92	281.88	429.63	-492.05	303.01	463.57	-418.59	352.03	449.17	-527.29	105.43	420.22	-496.86	109.55	327.25	-597.91	76.168	362.06	-584.52	45.44	333.28	-589.53	46.081	398.1	-400.6	36.063	459.48	-367.15	39.62	335.2	-304.83	57.028	390.84	-361.31	718.94	100.11	-257.71	681.06	90.345	-320.05	637.64	112.35	-307.53	762.39	80.521	-255.07	573.69	100.01	-206.96	578.27	238.86	-343.4	462.76	92.89	-311.25	358.34	112.06	-366.51	388.91	99.315	-287.76	430.75	100.94	-446.5	190.99	144.17	-403.56	197.05	234.7	-516.37	185.85	200.07	-510.45	161.04	233.99	-521.51	157.67	172.99	-340.1	71.636	114.35	-294.06	82.869	229.72	-240.41	70.749	169.45	-504.27	1607.9	332.67	-588.7	1294.4	346.16
205	0.85	-285.32	1298.6	295.84	-390.21	1543.9	482.78	-430.59	1564.5	155.91	-426.58	1869.7	326.51	-327.8	1039.7	447.76	-333.94	1050.6	183.72	-566.21	1083.8	360.55	-569.8	1081.7	257.44	-406.55	982.61	525.87	-433.52	1001.1	101.95	-412.02	1139.1	514.91	-447.53	1132.8	115.19	-580.39	1045.7	307.38	-416.3	675.29	493.54	-348.21	604.47	459.85	-415.87	589.17	469.07	-345.45	692.84	483.94	-395.94	522.33	457.23	-396.42	529.46	315.92	-475.61	371.42	476.15	-430.36	281.79	429.55	-491.42	303.13	463.41	-417.8	351.9	449.05	-527.17	105.52	420.11	-496.7	109.53	327.14	-597.82	76.278	361.96	-584.47	45.506	333.23	-589.48	46.217	398.03	-400.57	36.036	459.48	-367.09	39.623	335.2	-304.77	56.899	390.89	-355.01	719.37	100.12	-251.27	681.7	90.821	-313.65	638.16	112.54	-301.23	762.93	80.735	-248.36	574.12	100.41	-200.94	579.06	239.16	-334.26	460.67	92.733	-299.44	357.15	111.95	-355.43	386.25	99.01	-277.84	430.13	101	-430.29	186.23	143.41	-387.58	193.17	234.02	-500.06	178.99	199.27	-493.36	154.2	233.11	-504.25	150.78	172.04	-320.51	70.026	113.32	-274.83	82.12	228.77	-220.86	71.763	168.48	-498.56	1607.9	332.83	-582.94	1294.5	346.27
206	0.85417	-279.81	1298.6	295.86	-384.39	1543.9	482.81	-425.1	1564.5	155.97	-421.09	1869.7	326.4	-322.52	1039.4	447.77	-328.47	1050.7	183.71	-560.79	1083.9	360.2	-564.32	1081.8	257.08	-401.57	982.35	525.63	-427.9	1001.4	101.67	-406.83	1138.8	514.87	-441.99	1132.9	115.03	-574.94	1045.8	306.96	-413.53	675.28	493.3	-346	603.96	459.6	-413.76	589.15	468.9	-342.52	692.3	483.64	-394.46	522.09	457.05	-394.9	529.18	315.65	-474.76	371.47	476.01	-429.79	281.69	429.46	-490.78	303.23	463.25	-417.01	351.76	448.92	-527.05	105.6	420	-496.54	109.51	327.03	-597.74	76.384	361.85	-584.41	45.568	333.19	-589.42	46.35	397.96	-400.55	36.005	459.47	-367.03	39.629	335.19	-304.7	56.768	390.94	-348.84	719.68	100.2	-244.99	682.17	91.309	-307.4	638.54	112.79	-295.07	763.32	80.96	-241.8	574.43	100.83	-195.04	579.7	239.48	-325.15	458.53	92.592	-287.67	355.97	111.82	-344.36	383.57	98.703	-267.99	429.49	101.05	-413.94	181.56	142.6	-371.5	189.36	233.3	-483.55	172.18	198.42	-476.07	147.43	232.17	-486.78	143.96	171.03	-300.86	68.621	112.22	-255.57	81.534	227.75	-201.33	72.974	167.47	-492.84	1607.9	332.98	-577.2	1294.5	346.37
207	0.85833	-274.3	1298.6	295.86	-378.57	1543.8	482.84	-419.61	1564.4	156.01	-415.59	1869.6	326.29	-317.22	1039.1	447.76	-323	1050.7	183.66	-555.36	1083.9	359.84	-558.85	1081.9	256.72	-396.6	982.03	525.4	-422.31	1001.7	101.38	-401.64	1138.4	514.83	-436.46	1133	114.85	-569.49	1045.8	306.54	-410.76	675.25	493.06	-343.79	603.43	459.36	-411.65	589.12	468.73	-339.59	691.75	483.35	-392.95	521.83	456.86	-393.35	528.89	315.37	-473.89	371.52	475.87	-429.21	281.57	429.37	-490.13	303.33	463.09	-416.2	351.61	448.8	-526.92	105.69	419.89	-496.39	109.48	326.92	-597.67	76.486	361.74	-584.34	45.627	333.16	-589.36	46.479	397.89	-400.52	35.969	459.46	-366.97	39.638	335.19	-304.63	56.636	390.99	-342.81	719.87	100.34	-238.88	682.48	91.806	-301.31	638.79	113.11	-289.05	763.55	81.195	-235.39	574.62	101.26	-189.26	580.19	239.82	-316.09	456.34	92.469	-275.94	354.81	111.66	-333.3	380.9	98.395	-258.2	428.82	101.11	-397.47	176.99	141.74	-355.32	185.63	232.54	-466.85	165.45	197.51	-458.57	140.76	231.16	-469.11	137.26	169.96	-281.17	67.435	111.08	-236.3	81.129	226.7	-181.83	74.398	166.41	-487.11	1607.8	333.13	-571.46	1294.4	346.44
